<svg width="128" height="128" viewBox="0 0 128 128" fill="none" xmlns="http://www.w3.org/2000/svg">
<rect width="128" height="128" fill="#312E81"/>
<rect x="60" y="83" width="10" height="12" fill="#6B7280"/>
<rect x="30" y="33" width="70" height="50" fill="#374151"/>
<path d="M45.2574 57.308C45.9294 57.308 46.5081 57.5507 46.9934 58.036C47.4881 58.512 47.7354 59.1093 47.7354 59.828C47.7354 60.0707 47.7074 60.2667 47.6514 60.416C47.5954 60.5653 47.5021 60.6727 47.3714 60.738C47.2408 60.8033 47.1194 60.8453 47.0074 60.864C46.9048 60.8733 46.7601 60.878 46.5734 60.878H43.2554V61.536C43.2554 62.1613 43.4748 62.6607 43.9134 63.034C44.3521 63.4073 44.9214 63.594 45.6214 63.594C45.9668 63.594 46.2561 63.5473 46.4894 63.454C46.7228 63.3513 46.8954 63.2533 47.0074 63.16C47.1288 63.0667 47.2174 63.02 47.2734 63.02C47.3388 63.02 47.3948 63.048 47.4414 63.104C47.4974 63.16 47.5254 63.216 47.5254 63.272C47.5254 63.3653 47.4508 63.4773 47.3014 63.608C47.1521 63.7293 46.9234 63.8413 46.6154 63.944C46.3074 64.0373 45.9668 64.084 45.5934 64.084C44.7628 64.084 44.0814 63.8507 43.5494 63.384C43.0268 62.908 42.7654 62.292 42.7654 61.536V59.786C42.7654 59.114 43.0081 58.5353 43.4934 58.05C43.9881 57.5553 44.5761 57.308 45.2574 57.308ZM43.2554 60.388H46.4054C46.7508 60.388 46.9748 60.3553 47.0774 60.29C47.1894 60.2247 47.2454 60.0847 47.2454 59.87C47.2454 59.338 47.0588 58.862 46.6854 58.442C46.3121 58.0127 45.8361 57.798 45.2574 57.798C44.6974 57.798 44.2214 57.9987 43.8294 58.4C43.4468 58.792 43.2554 59.254 43.2554 59.786V60.388ZM53.6341 53.248C53.7928 53.248 53.8721 53.3273 53.8721 53.486V63.748C53.8721 63.8133 53.8488 63.874 53.8021 63.93C53.7555 63.9767 53.6995 64 53.6341 64C53.5688 64 53.5081 63.9767 53.4521 63.93C53.4055 63.874 53.3821 63.8133 53.3821 63.748V63.02C53.2235 63.3187 52.9668 63.5707 52.6121 63.776C52.2668 63.9813 51.8888 64.084 51.4781 64.084C50.8155 64.084 50.2321 63.8273 49.7281 63.314C49.2335 62.8007 48.9861 62.208 48.9861 61.536V59.828C48.9861 59.1373 49.2335 58.5447 49.7281 58.05C50.2228 57.5553 50.8155 57.308 51.5061 57.308C52.3555 57.308 52.9808 57.6627 53.3821 58.372V53.486C53.3821 53.3273 53.4661 53.248 53.6341 53.248ZM49.4761 59.828V61.536C49.4761 62.068 49.6721 62.544 50.0641 62.964C50.4655 63.384 50.9275 63.594 51.4501 63.594C51.9541 63.594 52.4021 63.412 52.7941 63.048C53.1861 62.6747 53.3821 62.3433 53.3821 62.054V59.828C53.3821 59.2213 53.1861 58.7313 52.7941 58.358C52.4115 57.9847 51.9681 57.798 51.4641 57.798C50.9321 57.798 50.4655 58.008 50.0641 58.428C49.6721 58.8387 49.4761 59.3053 49.4761 59.828ZM58.181 64.084C57.4996 64.084 56.9116 63.832 56.417 63.328C55.9316 62.824 55.689 62.236 55.689 61.564V57.644C55.689 57.5787 55.7123 57.5227 55.759 57.476C55.815 57.42 55.8756 57.392 55.941 57.392C56.0063 57.392 56.0623 57.42 56.109 57.476C56.1556 57.5227 56.179 57.5787 56.179 57.644V61.564C56.179 62.096 56.375 62.5673 56.767 62.978C57.159 63.3887 57.6303 63.594 58.181 63.594C58.7223 63.594 59.189 63.3887 59.581 62.978C59.973 62.5673 60.169 62.096 60.169 61.564V57.63C60.169 57.5647 60.1923 57.5087 60.239 57.462C60.295 57.4153 60.3556 57.392 60.421 57.392C60.4863 57.392 60.5423 57.4153 60.589 57.462C60.6356 57.5087 60.659 57.5647 60.659 57.63V61.564C60.659 62.236 60.4116 62.824 59.917 63.328C59.4316 63.832 58.853 64.084 58.181 64.084ZM62.4308 62.054V54.396C62.4308 54.3307 62.4542 54.2747 62.5008 54.228C62.5568 54.1813 62.6128 54.158 62.6688 54.158C62.7342 54.158 62.7902 54.1813 62.8368 54.228C62.8928 54.2747 62.9208 54.3307 62.9208 54.396V57.392H64.8108C64.8762 57.392 64.9322 57.42 64.9788 57.476C65.0255 57.5227 65.0488 57.5787 65.0488 57.644C65.0488 57.7093 65.0255 57.7653 64.9788 57.812C64.9322 57.8587 64.8762 57.882 64.8108 57.882H62.9208V62.054C62.9208 62.586 63.0375 62.964 63.2708 63.188C63.5042 63.4027 63.9055 63.51 64.4748 63.51H64.7968C64.8622 63.51 64.9182 63.5333 64.9648 63.58C65.0115 63.6267 65.0348 63.6827 65.0348 63.748C65.0348 63.8133 65.0115 63.874 64.9648 63.93C64.9182 63.9767 64.8622 64 64.7968 64H64.4748C63.1122 64 62.4308 63.3513 62.4308 62.054ZM68.3766 57.308C69.0486 57.308 69.6272 57.5507 70.1126 58.036C70.6072 58.512 70.8546 59.1093 70.8546 59.828C70.8546 60.0707 70.8266 60.2667 70.7706 60.416C70.7146 60.5653 70.6212 60.6727 70.4906 60.738C70.3599 60.8033 70.2386 60.8453 70.1266 60.864C70.0239 60.8733 69.8792 60.878 69.6926 60.878H66.3746V61.536C66.3746 62.1613 66.5939 62.6607 67.0326 63.034C67.4712 63.4073 68.0406 63.594 68.7406 63.594C69.0859 63.594 69.3752 63.5473 69.6086 63.454C69.8419 63.3513 70.0146 63.2533 70.1266 63.16C70.2479 63.0667 70.3366 63.02 70.3926 63.02C70.4579 63.02 70.5139 63.048 70.5606 63.104C70.6166 63.16 70.6446 63.216 70.6446 63.272C70.6446 63.3653 70.5699 63.4773 70.4206 63.608C70.2712 63.7293 70.0426 63.8413 69.7346 63.944C69.4266 64.0373 69.0859 64.084 68.7126 64.084C67.8819 64.084 67.2006 63.8507 66.6686 63.384C66.1459 62.908 65.8846 62.292 65.8846 61.536V59.786C65.8846 59.114 66.1272 58.5353 66.6126 58.05C67.1072 57.5553 67.6952 57.308 68.3766 57.308ZM66.3746 60.388H69.5246C69.8699 60.388 70.0939 60.3553 70.1966 60.29C70.3086 60.2247 70.3646 60.0847 70.3646 59.87C70.3646 59.338 70.1779 58.862 69.8046 58.442C69.4312 58.0127 68.9552 57.798 68.3766 57.798C67.8166 57.798 67.3406 57.9987 66.9486 58.4C66.5659 58.792 66.3746 59.254 66.3746 59.786V60.388ZM72.5823 57.392H73.8843C74.7429 57.392 75.3729 57.6207 75.7743 58.078C76.1756 58.526 76.3763 59.1233 76.3763 59.87V63.748C76.3763 63.916 76.2969 64 76.1383 64C76.0729 64 76.0123 63.9767 75.9563 63.93C75.9096 63.8833 75.8863 63.8227 75.8863 63.748V63.02C75.2703 63.7293 74.5703 64.084 73.7863 64.084C73.2076 64.084 72.7363 63.93 72.3723 63.622C72.0176 63.3047 71.8403 62.8427 71.8403 62.236C71.8403 61.536 72.1156 61.0553 72.6663 60.794C73.2263 60.5233 74.0383 60.388 75.1023 60.388H75.8863V59.87C75.8863 59.3007 75.7136 58.8293 75.3683 58.456C75.0323 58.0733 74.5376 57.882 73.8843 57.882H72.5823C72.5169 57.882 72.4563 57.8587 72.4003 57.812C72.3536 57.756 72.3303 57.6953 72.3303 57.63C72.3303 57.4713 72.4143 57.392 72.5823 57.392ZM75.8863 62.054V60.878H75.1163C74.6963 60.878 74.3416 60.892 74.0523 60.92C73.7723 60.948 73.4876 61.0087 73.1983 61.102C72.9089 61.186 72.6896 61.326 72.5403 61.522C72.4003 61.7087 72.3303 61.9467 72.3303 62.236C72.3303 62.684 72.4609 63.0247 72.7223 63.258C72.9929 63.482 73.3429 63.594 73.7723 63.594C74.2763 63.594 74.7523 63.4167 75.2003 63.062C75.6576 62.7073 75.8863 62.3713 75.8863 62.054ZM82.6045 58.764C82.8378 58.288 83.1458 57.9287 83.5285 57.686C83.9205 57.434 84.3312 57.308 84.7605 57.308C85.3858 57.308 85.9225 57.5367 86.3705 57.994C86.8278 58.4513 87.0565 59.0627 87.0565 59.828V63.748C87.0565 63.8133 87.0285 63.874 86.9725 63.93C86.9258 63.9767 86.8698 64 86.8045 64C86.7392 64 86.6832 63.9767 86.6365 63.93C86.5898 63.874 86.5665 63.8133 86.5665 63.748V59.828C86.5665 59.1933 86.3798 58.6987 86.0065 58.344C85.6425 57.98 85.2178 57.798 84.7325 57.798C84.2378 57.798 83.7992 57.994 83.4165 58.386C83.0432 58.7687 82.8565 59.2493 82.8565 59.828V63.762C82.8565 63.9207 82.7725 64 82.6045 64C82.4458 64 82.3665 63.9207 82.3665 63.762V59.828C82.3665 59.2493 82.1752 58.7687 81.7925 58.386C81.4098 57.994 80.9665 57.798 80.4625 57.798C79.9865 57.798 79.5665 57.98 79.2025 58.344C78.8385 58.6987 78.6565 59.1933 78.6565 59.828V63.762C78.6565 63.8273 78.6285 63.8833 78.5725 63.93C78.5258 63.9767 78.4698 64 78.4045 64C78.3392 64 78.2832 63.9767 78.2365 63.93C78.1898 63.8833 78.1665 63.8273 78.1665 63.762V59.828C78.1665 59.0627 78.3858 58.4513 78.8245 57.994C79.2725 57.5367 79.7998 57.308 80.4065 57.308C80.8358 57.308 81.2465 57.434 81.6385 57.686C82.0305 57.9287 82.3525 58.288 82.6045 58.764Z" fill="white"/>
<rect x="30" y="33" width="70" height="50" stroke="#9CA3AF" stroke-width="2" stroke-linecap="round" stroke-linejoin="round"/>
<rect x="55" y="93" width="19" height="2" fill="#C4C4C4"/>
</svg>
